<?xml version="1.0" encoding="utf-8"?>
<!DOCTYPE svg PUBLIC "-//W3C//DTD SVG 1.1//EN" "http://www.w3.org/Graphics/SVG/1.1/DTD/svg11.dtd">
<svg version="1.1" id="Layer_1"
	 xmlns="http://www.w3.org/2000/svg" xmlns:xlink="http://www.w3.org/1999/xlink" x="0px" y="0px" width="16px" height="16px"
	 viewBox="0 0 16 16" enable-background="new 0 0 16 16" xml:space="preserve">
<title></title>
<description></description>
<g id="icon" transform="translate(106.000000, 87.000000)">
	<path id="Fill-2" fill="#999999" d="M-91.453-72.906c-0.044-1.856-0.23-2.273-0.329-2.562
		c-0.038-0.114-0.068-0.886-1.35-1.386c-0.938-0.366-2.207-0.306-3.144-0.94c-0.036-0.116-0.062-0.239-0.072-0.371
		c-0.021-0.223-0.038-0.447-0.054-0.672c0.149-0.273,0.308-0.608,0.473-1.016c0.126-0.309,0.227-0.606,0.308-0.889
		c0.024,0.02,0.057,0.031,0.088,0.035l0.084,0.008c0.007,0,0.012,0,0.018,0c0.097,0,0.178-0.081,0.187-0.207l0.091-1.18
		c0.009-0.09-0.066-0.188-0.171-0.197h-0.01c0.013-0.167,0.019-0.321,0.021-0.464l-2.646,0.604
		c-0.013,0.004-0.027,0.004-0.041,0.004c-0.013,0-0.028,0-0.041-0.004l-2.647-0.604c0.002,0.143,0.009,0.297,0.022,0.464h-0.011
		c-0.103,0.01-0.178,0.107-0.171,0.197l0.093,1.18c0.01,0.126,0.091,0.207,0.188,0.207c0.005,0,0.01,0,0.015,0l0.086-0.008
		c0.032-0.004,0.061-0.015,0.086-0.035c0.082,0.283,0.185,0.581,0.31,0.889c0.165,0.409,0.322,0.743,0.472,1.016
		c-0.015,0.225-0.032,0.449-0.053,0.672c-0.012,0.132-0.037,0.255-0.073,0.371c-0.937,0.635-2.203,0.574-3.143,0.94
		c-1.28,0.5-1.311,1.271-1.351,1.386c-0.098,0.288-0.287,0.705-0.327,2.562c-0.006,0.247,0,0.617,0.736,0.941
		c1.605,0.627,3.673,0.825,5.714,0.963C-98.087-71-98.045-71-98.002-71s0.086,0,0.096-0.002c2.042-0.139,4.109-0.337,5.713-0.963
		C-91.453-72.289-91.447-72.659-91.453-72.906"/>
	<path id="Fill-3" fill="#999999" d="M-101.086-85.109v1.285L-98-83.12l3.084-0.704v-1.285l0.372-0.097
		l0.653-0.171v0.626c-0.025,0.013-0.045,0.042-0.045,0.074v0.083c0,0.031,0.016,0.057,0.039,0.072l-0.159,0.736h0.465l-0.159-0.736
		c0.023-0.016,0.041-0.041,0.041-0.072v-0.083c0-0.034-0.021-0.062-0.046-0.074v-0.659l0.952-0.246L-98.001-87l-5.196,1.344
		L-101.086-85.109"/>
</g>
</svg>
